<svg width="50" height="50" viewBox="0 0 50 50" fill="none" xmlns="http://www.w3.org/2000/svg">
<g clip-path="url(#clip0_248_232)">
<path d="M18.1115 7.046L16.7347 10.9719H14.8345C14.3386 10.9719 13.8951 11.2863 13.7309 11.7544L12.3157 15.7895C12.1986 16.1234 12.2514 16.4957 12.4566 16.7853C12.6598 17.0717 12.9923 17.2428 13.3462 17.2428H21.4862C21.5929 17.2428 21.697 17.2255 21.7969 17.1959C21.8967 17.2255 22.0008 17.2428 22.1075 17.2428H30.2476C30.6015 17.2428 30.934 17.0718 31.1371 16.7853C31.3424 16.4958 31.3951 16.1236 31.278 15.7896L29.8628 11.7543C29.6985 11.2863 29.2551 10.972 28.7592 10.972H26.859L25.482 7.0459C25.3178 6.57793 24.8743 6.26357 24.3784 6.26357H19.2151C18.7192 6.26348 18.2758 6.57793 18.1115 7.046ZM14.0098 15.6803L15.1131 12.5345H17.7268H19.7192L20.8226 15.6803H14.0098ZM21.7968 13.737L21.375 12.5344H22.2186L21.7968 13.737ZM29.5838 15.6803H22.7711L23.8744 12.5345H25.8668H28.4805L29.5838 15.6803ZM19.4937 7.82598H24.0998L25.2031 10.9719H18.3904L19.4937 7.82598ZM21.0155 3.65898V1.5625C21.0155 1.13105 21.3653 0.78125 21.7968 0.78125C22.2282 0.78125 22.578 1.13105 22.578 1.5625V3.65898C22.578 4.09043 22.2282 4.44023 21.7968 4.44023C21.3653 4.44023 21.0155 4.09043 21.0155 3.65898ZM16.0249 3.31846C15.8092 2.94482 15.9372 2.46699 16.3108 2.25127C16.6846 2.03574 17.1623 2.16348 17.378 2.53721L18.4263 4.35273C18.642 4.72637 18.514 5.2042 18.1403 5.41992C18.0173 5.49092 17.883 5.52471 17.7504 5.52471C17.4804 5.52471 17.2178 5.38457 17.073 5.13398L16.0249 3.31846ZM12.2948 6.26719C12.5105 5.89346 12.9885 5.76533 13.362 5.98125L15.1775 7.02949C15.5512 7.24521 15.6792 7.72305 15.4635 8.09668C15.3187 8.34727 15.0562 8.4874 14.7861 8.4874C14.6536 8.4874 14.5192 8.45361 14.3962 8.38262L12.5807 7.33437C12.2071 7.11865 12.0791 6.64082 12.2948 6.26719ZM25.1673 4.35283L26.2155 2.53721C26.4312 2.16348 26.9092 2.03545 27.2827 2.25127C27.6563 2.46699 27.7844 2.94482 27.5687 3.31846L26.5204 5.13408C26.3757 5.38467 26.1131 5.5248 25.8431 5.5248C25.7105 5.5248 25.5762 5.49102 25.4531 5.42002C25.0796 5.2042 24.9516 4.72646 25.1673 4.35283ZM28.13 8.09668C27.9143 7.72305 28.0423 7.24521 28.4159 7.02949L30.2315 5.98125C30.6053 5.76562 31.083 5.89356 31.2987 6.26719C31.5145 6.64082 31.3864 7.11865 31.0128 7.33437L29.1972 8.38262C29.0741 8.45361 28.9398 8.4874 28.8072 8.4874C28.5373 8.4875 28.2747 8.34736 28.13 8.09668ZM13.4835 26.756C13.4835 26.3245 13.8333 25.9747 14.2647 25.9747H29.3288C29.7603 25.9747 30.1101 26.3245 30.1101 26.756C30.1101 27.1874 29.7603 27.5372 29.3288 27.5372H14.2647C13.8332 27.5372 13.4835 27.1875 13.4835 26.756ZM13.4835 22.716C13.4835 22.2846 13.8333 21.9348 14.2647 21.9348H29.3288C29.7603 21.9348 30.1101 22.2846 30.1101 22.716C30.1101 23.1475 29.7603 23.4973 29.3288 23.4973H14.2647C13.8332 23.4973 13.4835 23.1476 13.4835 22.716ZM13.4835 30.7958C13.4835 30.3644 13.8333 30.0146 14.2647 30.0146H29.3288C29.7603 30.0146 30.1101 30.3644 30.1101 30.7958C30.1101 31.2272 29.7603 31.5771 29.3288 31.5771H14.2647C13.8332 31.5771 13.4835 31.2273 13.4835 30.7958ZM13.4835 34.8357C13.4835 34.4043 13.8333 34.0545 14.2647 34.0545H29.3288C29.7603 34.0545 30.1101 34.4043 30.1101 34.8357C30.1101 35.2672 29.7603 35.617 29.3288 35.617H14.2647C13.8332 35.617 13.4835 35.2672 13.4835 34.8357ZM21.8396 44.173C21.9057 44.7169 21.7579 45.2156 21.4123 45.6152C21.1048 45.9709 20.6414 46.2309 20.1082 46.3595V46.4382C20.1082 46.8696 19.7584 47.2194 19.327 47.2194C18.8955 47.2194 18.5457 46.8696 18.5457 46.4382V46.3456C17.6848 46.1096 17.0322 45.489 16.8222 44.6464C16.7178 44.2277 16.9726 43.8037 17.3912 43.6993C17.81 43.5948 18.2338 43.8497 18.3383 44.2684C18.4561 44.7405 18.9711 44.8976 19.3795 44.8871C19.7383 44.8785 20.0883 44.7576 20.2306 44.5932C20.2672 44.5509 20.3048 44.4946 20.2886 44.3614C20.2723 44.2272 20.2341 43.9129 19.2054 43.744C17.3396 43.4376 17.0112 42.3631 16.9814 41.7499C16.9343 40.7784 17.5558 39.9579 18.5457 39.6548V39.5473C18.5457 39.1158 18.8955 38.766 19.327 38.766C19.7584 38.766 20.1082 39.1158 20.1082 39.5473V39.6437C20.7914 39.8513 21.3586 40.3417 21.6503 41.0362C21.8173 41.4341 21.6303 41.892 21.2324 42.059C20.8346 42.2261 20.3767 42.0389 20.2097 41.6411C19.9769 41.0867 19.3946 41.0567 19.087 41.1265C18.9544 41.1565 18.5232 41.285 18.5422 41.674C18.5467 41.7682 18.5606 42.0546 19.4586 42.2021C20.9086 42.4401 21.7098 43.1033 21.8396 44.173ZM49.1179 37.6656C49.0248 37.083 48.7104 36.5714 48.2335 36.2258L39.9262 30.1902C39.1467 29.6039 38.0935 29.5944 37.3018 30.1681L33.5112 32.922V18.5052C33.5112 18.0737 33.1614 17.7239 32.73 17.7239H10.8636C10.4321 17.7239 10.0823 18.0737 10.0823 18.5052V41.3688H2.19707C1.91836 41.3688 1.66074 41.5173 1.52109 41.7584C1.08467 42.5118 0.854004 43.3724 0.854004 44.247C0.854004 46.9884 3.08428 49.2187 5.82578 49.2187H27.6923C29.1368 49.2187 30.4928 48.6945 31.5401 47.7686C32.0231 48.6328 32.9469 49.2188 34.0054 49.2188H35.7561H41.4818H43.1922C44.7486 49.2188 46.0149 47.9524 46.0149 46.396V40.0203C46.3027 40.1532 46.6139 40.2233 46.9318 40.2233C47.0489 40.2233 47.167 40.2141 47.2849 40.1952C47.8675 40.1021 48.3791 39.7879 48.7253 39.3101C49.0715 38.8323 49.2109 38.2482 49.1179 37.6656ZM5.82568 47.6562C3.9458 47.6562 2.41641 46.1269 2.41641 44.2471C2.41641 43.7934 2.50664 43.3457 2.67978 42.9313H10.0822V43.3996C10.0823 45.7468 8.17275 47.6562 5.82568 47.6562ZM9.78955 47.6562C10.9303 46.5932 11.6448 45.0782 11.6448 43.3997V19.2864H31.9488V34.0572L28.9648 36.2252C28.4871 36.5714 28.1728 37.083 28.0797 37.6656C28.0568 37.809 28.0483 37.9524 28.0532 38.0944H23.1635C22.1053 37.2638 20.7735 36.7665 19.327 36.7665C17.8804 36.7665 16.5486 37.2638 15.4904 38.0944H14.2647C13.8333 38.0944 13.4835 38.4442 13.4835 38.8757C13.4835 39.246 13.7414 39.5555 14.0873 39.6359C13.4641 40.6054 13.1008 41.757 13.1008 42.9927C13.1008 44.8477 13.9172 46.5146 15.2084 47.6562H9.78955ZM19.327 47.6562C16.7554 47.6562 14.6633 45.5642 14.6633 42.9927C14.6633 40.4212 16.7554 38.3291 19.327 38.3291C21.8985 38.3291 23.9905 40.4212 23.9905 42.9927C23.9905 45.5642 21.8984 47.6562 19.327 47.6562ZM27.6922 47.6562H23.4454C24.7366 46.5146 25.553 44.8477 25.553 42.9927C25.553 41.766 25.1949 40.622 24.58 39.6569H28.7853C29.0986 39.9395 29.4862 40.1271 29.9126 40.1952C30.3503 40.2651 30.7889 40.2037 31.1825 40.0221V45.8345C30.3847 46.9785 29.0961 47.6562 27.6922 47.6562ZM36.5373 47.6562V41.7294H40.7006V47.6562H36.5373ZM43.1922 47.6562H42.2631V41.3035C42.2631 40.6768 41.7532 40.1669 41.1265 40.1669H36.1114C35.4847 40.1669 34.9748 40.6768 34.9748 41.3035V47.6562H34.0054C33.3104 47.6562 32.7451 47.0909 32.7451 46.396V38.9395L38.5988 34.6866L44.4524 38.9395V46.396C44.4524 47.0909 43.8871 47.6562 43.1922 47.6562ZM47.4601 38.3932C47.3587 38.533 47.209 38.625 47.0385 38.6522C46.868 38.6796 46.6971 38.6387 46.558 38.5379L39.058 33.0889C38.9211 32.9894 38.76 32.9396 38.5988 32.9396C38.4377 32.9396 38.2766 32.9894 38.1396 33.0889L30.6395 38.5379C30.4998 38.6389 30.329 38.6794 30.1591 38.6522C29.9886 38.625 29.8389 38.533 29.7376 38.3932C29.6362 38.2533 29.5954 38.0824 29.6227 37.9119C29.6499 37.7414 29.7419 37.5917 29.8825 37.4898L38.2195 31.4327C38.4481 31.267 38.7647 31.2702 38.9894 31.4405C38.9936 31.4437 38.9978 31.4469 39.0021 31.4501L47.3159 37.4904C47.4558 37.5918 47.5478 37.7414 47.575 37.9119C47.6022 38.0824 47.5613 38.2534 47.4601 38.3932Z" fill="white"/>
</g>
<defs>
<clipPath id="clip0_248_232">
<rect width="50" height="50" fill="white"/>
</clipPath>
</defs>
</svg>
