<svg width="56" height="56" viewBox="0 0 56 56" fill="none" xmlns="http://www.w3.org/2000/svg">
<g clip-path="url(#clip0_270_61)">
<path d="M40.301 44.6942C42.7273 44.6942 44.6942 42.7273 44.6942 40.301C44.6942 37.8746 42.7273 35.9077 40.301 35.9077C37.8746 35.9077 35.9077 37.8746 35.9077 40.301C35.9077 42.7273 37.8746 44.6942 40.301 44.6942Z" stroke="#11071F" stroke-width="3" stroke-miterlimit="10" stroke-linecap="round" stroke-linejoin="round"/>
<path d="M43.3164 29.2819L42.9369 26.2427H37.665L37.2855 29.2819C36.3516 29.5367 35.4658 29.9075 34.6434 30.3776L32.2245 28.4965L28.4965 32.2245L30.3776 34.6434C29.9084 35.465 29.5367 36.3516 29.2819 37.2855L26.2427 37.665V42.9369L29.2819 43.3164C29.5367 44.2504 29.9075 45.1361 30.3776 45.9585L28.4965 48.3774L32.2245 52.1055L34.6434 50.2243C35.465 50.6936 36.3516 51.0652 37.2855 51.3201L37.665 54.3593H42.9369L43.3164 51.3201C44.2504 51.0652 45.1361 50.6944 45.9585 50.2243L48.3774 52.1055L52.1055 48.3774L50.2243 45.9585C50.6936 45.137 51.0652 44.2504 51.3201 43.3164L54.3593 42.9369V37.665L51.3201 37.2855C51.0652 36.3516 50.6944 35.4658 50.2243 34.6434L52.1055 32.2245L48.3774 28.4965L45.9585 30.3776C45.137 29.9083 44.2504 29.5366 43.3164 29.2819Z" stroke="#11071F" stroke-width="3" stroke-miterlimit="10" stroke-linecap="round" stroke-linejoin="round"/>
<path d="M13.9417 12.1846H5.15517L1.64062 50.845H17.4563L13.9417 12.1846Z" stroke="#11071F" stroke-width="3" stroke-miterlimit="10" stroke-linecap="round" stroke-linejoin="round"/>
<path d="M38.5437 26.2425V17.4561L26.2426 22.7279V17.4561L14.8643 22.3325L17.4562 50.8446H30.1676" stroke="#11071F" stroke-width="3" stroke-miterlimit="10" stroke-linecap="round" stroke-linejoin="round"/>
<path d="M9.54834 5.15517C9.54834 4.22297 9.91825 3.32938 10.5781 2.67039C11.2371 2.01053 12.1307 1.64062 13.0629 1.64062C17.9605 1.64062 26.2426 1.64062 26.2426 1.64062" stroke="#11071F" stroke-width="3" stroke-miterlimit="10" stroke-linecap="round" stroke-linejoin="round"/>
<path d="M24.4854 8.66992H35.0291" stroke="#11071F" stroke-width="3" stroke-miterlimit="10" stroke-linecap="round" stroke-linejoin="round"/>
<path d="M4.35645 20.9707H14.7403" stroke="#11071F" stroke-width="3" stroke-miterlimit="10" stroke-linecap="round" stroke-linejoin="round"/>
</g>
<defs>
<clipPath id="clip0_270_61">
<rect width="56" height="56" fill="white"/>
</clipPath>
</defs>
</svg>
